<!DOCTYPE svg PUBLIC "-//W3C//DTD SVG 1.1//EN" "http://www.w3.org/Graphics/SVG/1.1/DTD/svg11.dtd">
<!-- Uploaded to: SVG Repo, www.svgrepo.com, Transformed by: SVG Repo Mixer Tools -->
<svg width="800px" height="800px" viewBox="0 0 24 24" xmlns="http://www.w3.org/2000/svg" id="edit" class="icon glyph" fill="#808080" stroke="#808080">
<g id="SVGRepo_bgCarrier" stroke-width="0"/>
<g id="SVGRepo_tracerCarrier" stroke-linecap="round" stroke-linejoin="round"/>
<g id="SVGRepo_iconCarrier">
<path d="M20.71,3.29a2.91,2.91,0,0,0-2.2-.84,3.25,3.25,0,0,0-2.17,1L7.46,12.29s0,0,0,0a.62.62,0,0,0-.11.17,1,1,0,0,0-.1.18l0,0L6,16.72A1,1,0,0,0,7,18a.9.9,0,0,0,.28,0l4-1.17,0,0,.18-.1a.62.62,0,0,0,.17-.11l0,0,8.87-8.88a3.25,3.25,0,0,0,1-2.17A2.91,2.91,0,0,0,20.71,3.29Z"/>
<path d="M21,22H3a1,1,0,0,1,0-2H21a1,1,0,0,1,0,2Z" style="fill:#808080"/>
</g>
</svg>